# xmcd
#
# Track frame offsets: 
#        150
#        36750
#        46962
#        73075
#        86527
#        97987
#        106237
#        137475
#        163462
#        185062
#        195950
#        214987
#        238425
#        256512
#
# Disc length: 3521 seconds
#
# Revision: 5
# Processed by: cddbd v1.5.1PL2 Copyright (c) Steve Scherf et al.
# Submitted via: ExactAudioCopy v0.95b3
#
DISCID=c40dbf0e
DTITLE=Mike Oldfield - Tubular Bells II
DYEAR=1992
DGENRE=New Age
TTITLE0=Sentinel
TTITLE1=Dark Star
TTITLE2=Clear Light
TTITLE3=Blue Saloon
TTITLE4=Sunjammer
TTITLE5=Red Dawn
TTITLE6=The Bell
TTITLE7=Weightless
TTITLE8=The Great Plain
TTITLE9=Sunset Door
TTITLE10=Tatto
TTITLE11=Altered State
TTITLE12=Maya Gold
TTITLE13=Moonshine
EXTD=\nYEAR: 2000  ID3G:   0
EXTT0=
EXTT1=
EXTT2=
EXTT3=
EXTT4=
EXTT5=
EXTT6=
EXTT7=
EXTT8=
EXTT9=
EXTT10=
EXTT11=
EXTT12=
EXTT13=
PLAYORDER=
